<svg xmlns="http://www.w3.org/2000/svg" id="prefix__icon-quick_pay-na" width="120" height="120" viewBox="0 0 120 120">
    <defs>
        <clipPath id="prefix__clip-path">
            <path id="prefix__Rectangle_516" d="M0 0H120V120H0z" class="prefix__cls-1" data-name="Rectangle 516"/>
        </clipPath>
        <style>
            .prefix__cls-1{fill:#99c8e1}
        </style>
    </defs>
    <g id="prefix__Group_844" data-name="Group 844">
        <path id="prefix__Path_2422" d="M100.315 141.212a1.888 1.888 0 0 1 1.823-1.95h16.152q-.4 1.859-.623 3.776h-15.529a1.889 1.889 0 0 1-1.823-1.826zm17.121 8.376c-.029-.624-.046-1.254-.046-1.885s.017-1.262.046-1.892H95.215a1.889 1.889 0 0 0 0 3.776h22.221zm-8.371-13.109H119a39.933 39.933 0 0 1 1.315-3.776h-11.25a1.889 1.889 0 0 0 0 3.776zm6.919-6.551h5.585a39.74 39.74 0 0 1 2.148-3.778h-7.733a1.89 1.89 0 0 0-1.823 1.954 1.891 1.891 0 0 0 1.823 1.824zm1.685 22.438h-15.53a1.889 1.889 0 0 0 0 3.776h16.151q-.399-1.857-.622-3.776zm69.721-4.666a30 30 0 1 1-30-30 30 30 0 0 1 30 30zm-24.29-9.261a6.148 6.148 0 0 0-3.944-2.344v-3.4h-2.4v3.347a6.422 6.422 0 0 0-4.174 2 6.155 6.155 0 0 0-1.56 4.327 5.988 5.988 0 0 0 1.523 4.41 14.906 14.906 0 0 0 4.761 2.891 5.56 5.56 0 0 1 1.92 1.513 3.549 3.549 0 0 1 .55 2.1 3.418 3.418 0 0 1-.55 2.014 1.85 1.85 0 0 1-1.6.774 2.352 2.352 0 0 1-1.92-.92 5 5 0 0 1-.735-3.064h-4.741a7.392 7.392 0 0 0 1.751 5.325 7.108 7.108 0 0 0 4.433 2.129v3.15h2.418v-3.149a6.4 6.4 0 0 0 4.136-1.95 6.113 6.113 0 0 0 1.537-4.35 5.963 5.963 0 0 0-1.531-4.374 15.739 15.739 0 0 0-4.725-2.982 5.571 5.571 0 0 1-1.957-1.531 3.37 3.37 0 0 1-.542-1.971 3.874 3.874 0 0 1 .484-2.052 1.606 1.606 0 0 1 1.465-.79 1.749 1.749 0 0 1 1.538 1 5.7 5.7 0 0 1 .581 2.842h4.738a7.949 7.949 0 0 0-1.456-4.942zm19.79 9.261a25.337 25.337 0 0 0-7.469-18.032 1.125 1.125 0 0 0-1.592 1.591 23.249 23.249 0 0 1 0 32.882 1.125 1.125 0 0 0 1.592 1.591 25.337 25.337 0 0 0 7.469-18.032zm-62.575 15a39.56 39.56 0 0 1-1.315-3.773h-9.936a1.889 1.889 0 0 0 0 3.776h11.25zm-4.331 2.78a1.89 1.89 0 0 0 0 3.778h7.732a40.26 40.26 0 0 1-2.148-3.778zm77.406-17.78a36 36 0 1 1-36-36 36 36 0 0 1 36 36zm-2 0a34 34 0 1 0-34 34 34 34 0 0 0 34-34z" class="prefix__cls-1" data-name="Path 2422" transform="translate(-83.391 -87.702)"/>
    </g>
</svg>
