<svg id="ICON-communication" xmlns="http://www.w3.org/2000/svg" xmlns:xlink="http://www.w3.org/1999/xlink" width="120" height="120" viewBox="0 0 120 120">
  <defs>
    <clipPath id="clip-path">
      <rect id="_CLIPPING_" data-name="&lt;CLIPPING&gt;" width="120" height="120" fill="#99c8e1"/>
    </clipPath>
  </defs>
  <g id="Group_761" data-name="Group 761" clip-path="url(#clip-path)">
    <g id="Group_760" data-name="Group 760">
      <path id="Path_967" data-name="Path 967" d="M97.282,90.148a2.139,2.139,0,0,1-1.372-.5L85.351,80.852H49.131a3.308,3.308,0,0,1-3.3-3.305V51.511a3.308,3.308,0,0,1,3.3-3.3H107.2a3.308,3.308,0,0,1,3.3,3.3V77.547a3.308,3.308,0,0,1-3.3,3.305H99.44v7.14A2.133,2.133,0,0,1,98.2,89.941,2.155,2.155,0,0,1,97.282,90.148ZM49.131,50.207a1.306,1.306,0,0,0-1.3,1.3V77.547a1.306,1.306,0,0,0,1.3,1.305H86.075L97.19,88.109a.152.152,0,0,0,.25-.117v-9.14H107.2a1.306,1.306,0,0,0,1.3-1.305V51.511a1.306,1.306,0,0,0-1.3-1.3Z" fill="#99c8e1"/>
      <path id="Path_968" data-name="Path 968" d="M40.827,51.511v15.9H33.286L22.449,76.435a1.152,1.152,0,0,1-1.889-.885V67.41H11.8a2.3,2.3,0,0,1-2.3-2.305V32.156a2.3,2.3,0,0,1,2.3-2.3H69.868a2.3,2.3,0,0,1,2.305,2.3V43.207H49.131A8.313,8.313,0,0,0,40.827,51.511Z" fill="#99c8e1"/>
      <path id="Path_969" data-name="Path 969" d="M62.034,69.6A5.069,5.069,0,1,1,67.1,64.529,5.069,5.069,0,0,1,62.034,69.6Z" fill="#99c8e1"/>
      <path id="Path_970" data-name="Path 970" d="M78.163,69.6a5.069,5.069,0,1,1,5.069-5.069A5.069,5.069,0,0,1,78.163,69.6Z" fill="#99c8e1"/>
      <path id="Path_971" data-name="Path 971" d="M94.292,69.6a5.069,5.069,0,1,1,5.07-5.069A5.069,5.069,0,0,1,94.292,69.6Z" fill="#99c8e1"/>
    </g>
  </g>
</svg>
