<svg id="ICON-24_7_365" xmlns="http://www.w3.org/2000/svg" xmlns:xlink="http://www.w3.org/1999/xlink" width="120" height="120" viewBox="0 0 120 120">
  <defs>
    <clipPath id="clip-path">
      <rect id="_CLIPPING_" data-name="&lt;CLIPPING&gt;" width="120" height="120" fill="#99c8e1"/>
    </clipPath>
  </defs>
  <g id="Group_798" data-name="Group 798" clip-path="url(#clip-path)">
    <g id="Group_797" data-name="Group 797">
      <g id="Group_792" data-name="Group 792">
        <path id="DROP_ARROW" data-name="DROP ARROW" d="M56,20l4.267-5L56,10h3.733L64,15l-4.267,5Z" fill="#99c8e1"/>
        <path id="DROP_ARROW-2" data-name="DROP ARROW" d="M64,110l-4.267-5L64,100H60.267L56,105l4.267,5Z" fill="#99c8e1"/>
        <circle id="Ellipse_6155" data-name="Ellipse 6155" cx="3" cy="3" r="3" transform="translate(57 25)" fill="#99c8e1"/>
        <circle id="Ellipse_6156" data-name="Ellipse 6156" cx="3" cy="3" r="3" transform="translate(57.305 89)" fill="#99c8e1"/>
        <circle id="Ellipse_6157" data-name="Ellipse 6157" cx="3" cy="3" r="3" transform="translate(25.152 57.152)" fill="#99c8e1"/>
        <g id="Group_788" data-name="Group 788">
          <circle id="Ellipse_6158" data-name="Ellipse 6158" cx="1" cy="1" r="1" transform="translate(43.152 31.287)" fill="#99c8e1"/>
        </g>
        <g id="Group_789" data-name="Group 789">
          <circle id="Ellipse_6159" data-name="Ellipse 6159" cx="1" cy="1" r="1" transform="translate(31.439 43)" fill="#99c8e1"/>
        </g>
        <g id="Group_790" data-name="Group 790">
          <circle id="Ellipse_6160" data-name="Ellipse 6160" cx="1" cy="1" r="1" transform="translate(43.152 86.713)" fill="#99c8e1"/>
        </g>
        <g id="Group_791" data-name="Group 791">
          <circle id="Ellipse_6161" data-name="Ellipse 6161" cx="1" cy="1" r="1" transform="translate(31.439 75)" fill="#99c8e1"/>
        </g>
        <path id="Path_2302" data-name="Path 2302" d="M60,106a1,1,0,0,1,0-2A44,44,0,0,0,72.776,17.891a1,1,0,1,1,.58-1.914A46,46,0,0,1,60,106Z" fill="#99c8e1"/>
        <path id="Path_2303" data-name="Path 2303" d="M46.934,104.066a.971.971,0,0,1-.29-.043A46,46,0,0,1,60,14a1,1,0,0,1,0,2,44,44,0,0,0-12.776,86.109,1,1,0,0,1-.29,1.957Z" fill="#99c8e1"/>
      </g>
      <g id="Group_795" data-name="Group 795">
        <g id="Group_793" data-name="Group 793">
          <path id="Path_2304" data-name="Path 2304" d="M58.817,68.588H43.924V65.372l6.84-7.191a14.464,14.464,0,0,0,1.915-2.66,4.526,4.526,0,0,0,.614-2.032,2.918,2.918,0,0,0-.622-1.958,2.31,2.31,0,0,0-1.863-.731,2,2,0,0,0-1.747.943,4.211,4.211,0,0,0-.635,2.4H43.6l-.029-.088a6.647,6.647,0,0,1,1.929-5A7.076,7.076,0,0,1,50.808,47a8.026,8.026,0,0,1,5.474,1.725,5.955,5.955,0,0,1,1.965,4.721A6.225,6.225,0,0,1,57.2,57.012a45.065,45.065,0,0,1-3.851,4.6L50.472,64.7l.044.088h8.3Z" fill="#99c8e1"/>
          <path id="Path_2305" data-name="Path 2305" d="M74.281,60.3H76.43v3.8H74.281v4.487h-4.94V64.1H61.1l-.292-3.017,8.536-13.733v-.044h4.94Zm-9.062,0h4.122V53.723l-.088-.029-.38.6Z" fill="#99c8e1"/>
        </g>
        <g id="Group_794" data-name="Group 794">
          <path id="Path_2306" data-name="Path 2306" d="M47.088,78.6h1.5a1.79,1.79,0,0,0,1.321-.462,1.735,1.735,0,0,0,.462-1.283,1.542,1.542,0,0,0-.415-1.1,1.577,1.577,0,0,0-1.208-.443,1.756,1.756,0,0,0-1.094.358,1.111,1.111,0,0,0-.472.925H44.087l-.018-.057a3.038,3.038,0,0,1,1.292-2.66,5.273,5.273,0,0,1,3.274-1.019,5.744,5.744,0,0,1,3.576,1.023,3.439,3.439,0,0,1,1.339,2.9,2.838,2.838,0,0,1-.58,1.721,3.885,3.885,0,0,1-1.552,1.232,3.692,3.692,0,0,1,1.727,1.231,3.187,3.187,0,0,1,.622,1.976,3.5,3.5,0,0,1-1.443,2.968A5.991,5.991,0,0,1,48.635,87a5.747,5.747,0,0,1-3.382-1.014,3.257,3.257,0,0,1-1.4-2.939l.018-.057h3.114A1.412,1.412,0,0,0,47.5,84.1a1.837,1.837,0,0,0,1.25.448,1.87,1.87,0,0,0,1.34-.472,1.566,1.566,0,0,0,.5-1.189,1.84,1.84,0,0,0-.524-1.457,2.172,2.172,0,0,0-1.476-.458h-1.5Z" fill="#99c8e1"/>
          <path id="Path_2307" data-name="Path 2307" d="M61.023,72.867A6.8,6.8,0,0,1,62.466,73a9.068,9.068,0,0,1,1.4.438l-.529,2.321q-.66-.2-1.155-.3a5.855,5.855,0,0,0-1.137-.1,2.278,2.278,0,0,0-1.817.8,3.379,3.379,0,0,0-.655,2.326l.028.047a2.755,2.755,0,0,1,1.1-.736,4.35,4.35,0,0,1,1.566-.264,3.412,3.412,0,0,1,2.864,1.326,5.388,5.388,0,0,1,1.023,3.391A4.6,4.6,0,0,1,63.8,85.646,4.679,4.679,0,0,1,60.344,87,4.757,4.757,0,0,1,56.7,85.519a5.7,5.7,0,0,1-1.387-4.057V78.7a5.426,5.426,0,0,1,5.708-5.83Zm-.632,7.123a3.263,3.263,0,0,0-1.137.178,1.8,1.8,0,0,0-.75.5v.808a4.4,4.4,0,0,0,.486,2.279,1.512,1.512,0,0,0,1.354.794,1.359,1.359,0,0,0,1.169-.676,3.213,3.213,0,0,0,.015-3.265A1.34,1.34,0,0,0,60.391,79.99Z" fill="#99c8e1"/>
          <path id="Path_2308" data-name="Path 2308" d="M66.816,80.764l.792-7.7h8.058v2.453H70.2L69.854,78.4a2.9,2.9,0,0,1,.9-.444,4.356,4.356,0,0,1,1.179-.189,3.847,3.847,0,0,1,3.1,1.175,4.981,4.981,0,0,1,1.085,3.439,4.671,4.671,0,0,1-1.236,3.279A4.566,4.566,0,0,1,71.344,87a5.513,5.513,0,0,1-3.406-1.085,3.3,3.3,0,0,1-1.4-2.868l.019-.057,3.113-.188a1.746,1.746,0,0,0,.458,1.283,1.63,1.63,0,0,0,1.212.462,1.318,1.318,0,0,0,1.232-.609,2.968,2.968,0,0,0,.363-1.542,3.351,3.351,0,0,0-.406-1.783,1.4,1.4,0,0,0-1.283-.651,1.771,1.771,0,0,0-1.033.273,1.429,1.429,0,0,0-.543.689Z" fill="#99c8e1"/>
        </g>
      </g>
      <g id="Group_796" data-name="Group 796">
        <path id="Path_2309" data-name="Path 2309" d="M109.644,42.643q-8.085,9.234-11.163,18.025a93.068,93.068,0,0,0-4.34,21.1L93.622,87H81.087l.482-5.229A77.274,77.274,0,0,1,86.65,60.3,58.553,58.553,0,0,1,97.628,42.643H70.7V33h38.942Z" fill="#99c8e1"/>
      </g>
    </g>
  </g>
</svg>
