<svg id="ICON-streamlined_process" xmlns="http://www.w3.org/2000/svg" xmlns:xlink="http://www.w3.org/1999/xlink" width="120" height="120" viewBox="0 0 120 120">
  <defs>
    <clipPath id="clip-path">
      <rect id="_CLIPPING_" data-name="&lt;CLIPPING&gt;" width="120" height="120" fill="#99c8e1"/>
    </clipPath>
  </defs>
  <g id="Group_768" data-name="Group 768" clip-path="url(#clip-path)">
    <g id="Group_767" data-name="Group 767">
      <path id="Path_2276" data-name="Path 2276" d="M56.764,74.273a1.919,1.919,0,0,1,1.922,1.557l.275,1.366a1.939,1.939,0,0,0,1.9,1.554,1.792,1.792,0,0,0,.379-.038l4.844-.962a1.929,1.929,0,0,0,1.53-2.263h0l-.274-1.366a1.939,1.939,0,0,1,1.535-2.278,1.861,1.861,0,0,1,.387-.038,1.929,1.929,0,0,1,1.074.33l1.153.768a1.95,1.95,0,0,0,2.7-.533l2.746-4.1a1.926,1.926,0,0,0-.549-2.679h0l-1.156-.768a1.931,1.931,0,0,1,.7-3.5l1.373-.273a1.935,1.935,0,0,0,1.529-2.27h0l-.975-4.827a1.938,1.938,0,0,0-2.287-1.518l-1.373.273a2.153,2.153,0,0,1-.4.038,1.932,1.932,0,0,1-1.6-3.005l.771-1.147a1.926,1.926,0,0,0-.549-2.679h0L68.3,43.181a1.95,1.95,0,0,0-2.7.533l-.772,1.15A1.948,1.948,0,0,1,61.3,44.17L61.029,42.8a1.94,1.94,0,0,0-1.9-1.554,1.964,1.964,0,0,0-.382.038L53.9,42.25a1.931,1.931,0,0,0-1.527,2.27h0l.275,1.365a1.934,1.934,0,0,1-1.522,2.278h0a1.927,1.927,0,0,1-1.469-.295L48.5,47.1a1.943,1.943,0,0,0-2.686.527l0,0h0l-2.746,4.1a1.926,1.926,0,0,0,.549,2.679h0l1.156.765a1.931,1.931,0,0,1-.7,3.5l-1.373.273a1.934,1.934,0,0,0-1.524,2.273h0l.966,4.818a1.936,1.936,0,0,0,2.271,1.522h0l1.373-.273a2.218,2.218,0,0,1,.4-.039,1.932,1.932,0,0,1,1.6,3.005L47.011,71.4a1.927,1.927,0,0,0,.549,2.68h0l4.119,2.731a1.948,1.948,0,0,0,2.691-.533l.769-1.147A1.925,1.925,0,0,1,56.764,74.273Z" fill="#99c8e1"/>
      <g id="Group_766" data-name="Group 766">
        <g id="Group_765" data-name="Group 765">
          <path id="Path_2277" data-name="Path 2277" d="M74.817,98.985a1,1,0,0,1-.359-1.933,39.627,39.627,0,0,0,0-74.1,1,1,0,1,1,.719-1.866,41.627,41.627,0,0,1,0,77.837A1.009,1.009,0,0,1,74.817,98.985Zm-29.634,0a1,1,0,0,1-.359-.066,41.626,41.626,0,0,1,0-77.837,1,1,0,1,1,.718,1.866,39.627,39.627,0,0,0,0,74.1,1,1,0,0,1-.359,1.933Z" fill="#99c8e1"/>
          <path id="DROP_ARROW" data-name="DROP ARROW" d="M37.36,18.933l7.011,3.175-2.057,7.373,3.967-1.836,2.057-7.373L41.326,17.1Z" fill="#99c8e1"/>
          <path id="DROP_ARROW-2" data-name="DROP ARROW" d="M82.64,101.067l-7.011-3.175,2.057-7.373-3.967,1.836-2.057,7.373,7.012,3.175Z" fill="#99c8e1"/>
        </g>
        <path id="Path_771" data-name="Path 771" d="M68.443,25.775h0v1.838h0A1.141,1.141,0,0,1,67.3,28.748H52.7a1.144,1.144,0,0,1-1.144-1.137V25.775a5.579,5.579,0,0,1,4.829-5.5h0a3.937,3.937,0,0,0,.356.339l.049.04a5.007,5.007,0,0,0,2.617,1.134l.126.012c.068.006.137.012.206.016.116,0,.232,0,.347,0H60.2a2.613,2.613,0,0,0,.293-.026,5,5,0,0,0,2.469-1l.083-.065c.073-.057.143-.117.213-.18.1-.09.2-.182.29-.281h0a5.591,5.591,0,0,1,3.322,1.655l.076.082c.031.033.062.065.091.1l.062.071.1.117.017.022a5.582,5.582,0,0,1,.41.581l.033.055c.031.053.063.105.092.159l.01.018c.036.066.072.133.1.2l.011.022a5.534,5.534,0,0,1,.275.667l.01.031a5.293,5.293,0,0,1,.182.7l.01.061c.012.063.023.125.033.19v0c.013.083.023.164.03.25V25.3c0,.068.012.136.015.206v.045A1.36,1.36,0,0,1,68.443,25.775Zm-8.478-4.894h0c2.5,0,4.528-2.435,4.528-5.44S62.464,10,59.965,10c-2.34,0-4.266,2.141-4.5,4.885-.016.183-.024.367-.024.556a6.494,6.494,0,0,0,.2,1.618A4.706,4.706,0,0,0,59.965,20.881Z" fill="#99c8e1"/>
        <path id="Path_771-2" data-name="Path 771" d="M68.443,107.027h0v1.838h0A1.141,1.141,0,0,1,67.3,110H52.7a1.143,1.143,0,0,1-1.144-1.136v-1.837a5.58,5.58,0,0,1,4.829-5.5h0a3.676,3.676,0,0,0,.356.339l.049.04a4.992,4.992,0,0,0,2.617,1.134l.126.012c.068.007.137.013.206.017.116,0,.232,0,.347,0H60.2a2.4,2.4,0,0,0,.293-.027,4.978,4.978,0,0,0,2.469-1l.083-.064c.073-.058.143-.118.213-.181.1-.089.2-.182.29-.281h0a5.6,5.6,0,0,1,3.322,1.655l.076.083c.031.032.062.065.091.1l.062.071c.032.039.066.077.1.116l.017.023a5.582,5.582,0,0,1,.41.581l.033.055c.031.052.063.105.092.159l.01.017c.036.066.072.134.1.2l.011.023a5.521,5.521,0,0,1,.275.666l.01.031a5.294,5.294,0,0,1,.182.7l.01.062c.012.062.023.125.033.19v0c.013.083.023.164.03.25v.053c0,.069.012.136.015.206v.045A1.374,1.374,0,0,1,68.443,107.027Zm-8.478-4.893h0c2.5,0,4.528-2.435,4.528-5.44s-2.029-5.442-4.528-5.442c-2.34,0-4.266,2.142-4.5,4.885-.016.183-.024.368-.024.557a6.486,6.486,0,0,0,.2,1.617A4.708,4.708,0,0,0,59.965,102.134Z" fill="#99c8e1"/>
      </g>
    </g>
  </g>
</svg>
