<svg xmlns="http://www.w3.org/2000/svg" xmlns:xlink="http://www.w3.org/1999/xlink" width="160" height="160" viewBox="0 0 160 160"><defs><clipPath id="a"><rect width="160" height="160" fill="#0076b6"/></clipPath></defs><g clip-path="url(#a)"><g transform="translate(45.861 15.333)"><path d="M41.5,79.784V90.1l4.811-5.157Zm.327,35.289h-.007L58.218,97.7l-7.589-8.135L41.5,99.354v13.933m28.827,5.62H85.2a5.636,5.636,0,0,0,5.619-5.619V102.839L88.2,100.024Zm20.5-94.233V37.232L64.541,65.4l-6.58-7.055a3.159,3.159,0,0,0-4.619,4.308l6.879,7.375L50.637,80.311l-9.129-9.784V24.674a5.637,5.637,0,0,1,5.62-5.619H85.2A5.636,5.636,0,0,1,90.825,24.674ZM75.888,39.14c0-6.489-4.907-11.748-10.96-11.748S53.969,32.651,53.969,39.14,64.928,58.523,64.928,58.523,75.888,45.627,75.888,39.14Zm-10.96-5.052a5.064,5.064,0,1,0,4.7,5.4c.008-.117.012-.233.012-.351A4.891,4.891,0,0,0,64.928,34.088Zm-17.8,84.821H61.642L83.882,95.4l-7.353-7.881L46.914,118.89m29.643-40.6L90.825,63.176V46.492L68.86,70.035Zm-4.345,4.6L64.538,74.67,54.956,84.939,62.57,93.1ZM88.233,90.8l2.593-2.739V72.374l-9.948,10.54Z" transform="translate(-32.028 -8.982)" fill="#0076b6"/><path d="M68.667,98.5H55.333A1.337,1.337,0,0,0,54,99.833V102.5a1.337,1.337,0,0,0,1.333,1.333H68.667A1.337,1.337,0,0,0,70,102.5V99.833A1.337,1.337,0,0,0,68.667,98.5Z" transform="translate(-27.861 17.5)" fill="#0076b6"/><path d="M86.251,14.167a13.794,13.794,0,0,1,13.756,13.755v96.488a13.793,13.793,0,0,1-13.753,13.757H50.819a13.792,13.792,0,0,1-13.756-13.755V27.924A13.792,13.792,0,0,1,50.816,14.167H86.251m0-2.667H50.816A16.437,16.437,0,0,0,34.4,27.921v96.491a16.437,16.437,0,0,0,16.42,16.421H86.253a16.439,16.439,0,0,0,16.42-16.421V27.921A16.439,16.439,0,0,0,86.253,11.5Z" transform="translate(-34.396 -11.5)" fill="#0076b6"/></g></g></svg>