<svg xmlns="http://www.w3.org/2000/svg" id="prefix__ICON-rapid_pay-na" width="160" height="160" viewBox="0 0 160 160">
    <defs>
        <clipPath id="prefix__clip-path">
            <path id="prefix___CLIPPING_" d="M0 0H160V160H0z" class="prefix__cls-1" data-name="&lt;CLIPPING&gt;"/>
        </clipPath>
        <style>
            .prefix__cls-1{fill:#0076b6}
        </style>
    </defs>
    <g id="prefix__Group_714" data-name="Group 714">
        <path id="prefix__Path_837" d="M102.623 151.048a2.518 2.518 0 0 1 2.431-2.6h21.535q-.531 2.478-.831 5.035h-20.7a2.518 2.518 0 0 1-2.435-2.435zm22.827 11.168c-.039-.832-.061-1.672-.061-2.513s.022-1.683.061-2.522H95.823a2.519 2.519 0 0 0 0 5.035h29.627zm-11.161-17.478h13.247a53.242 53.242 0 0 1 1.753-5.035h-15a2.519 2.519 0 0 0 0 5.035zm9.225-8.738h7.446a52.986 52.986 0 0 1 2.864-5.037h-10.31a2.52 2.52 0 0 0-2.431 2.6 2.522 2.522 0 0 0 2.431 2.437zm2.246 29.917h-20.706a2.519 2.519 0 0 0 0 5.035h21.535q-.532-2.473-.829-5.032zm92.961-6.217a40 40 0 1 1-40-40 40 40 0 0 1 40 40zm-32.386-12.348a8.2 8.2 0 0 0-5.259-3.125V139.7h-3.205v4.462a8.562 8.562 0 0 0-5.565 2.673 8.206 8.206 0 0 0-2.08 5.769 7.984 7.984 0 0 0 2.031 5.88 19.875 19.875 0 0 0 6.348 3.855 7.413 7.413 0 0 1 2.56 2.017 4.731 4.731 0 0 1 .733 2.8 4.557 4.557 0 0 1-.733 2.685 2.467 2.467 0 0 1-2.135 1.032 3.136 3.136 0 0 1-2.56-1.227 6.662 6.662 0 0 1-.98-4.085h-6.315a9.856 9.856 0 0 0 2.335 7.1 9.478 9.478 0 0 0 5.911 2.839v4.2h3.224v-4.2a8.529 8.529 0 0 0 5.515-2.6 8.15 8.15 0 0 0 2.049-5.8 7.951 7.951 0 0 0-2.041-5.832 20.985 20.985 0 0 0-6.3-3.976 7.428 7.428 0 0 1-2.609-2.041 4.493 4.493 0 0 1-.722-2.628 5.164 5.164 0 0 1 .645-2.736 2.142 2.142 0 0 1 1.953-1.053 2.331 2.331 0 0 1 2.051 1.327 7.594 7.594 0 0 1 .775 3.789h6.317a10.6 10.6 0 0 0-1.943-6.595zm26.386 12.348a33.782 33.782 0 0 0-9.959-24.042 1.5 1.5 0 0 0-2.122 2.121 31 31 0 0 1 0 43.842 1.5 1.5 0 0 0 2.122 2.121 33.782 33.782 0 0 0 9.959-24.042zm-83.432 20a52.748 52.748 0 0 1-1.755-5.028h-13.248a2.519 2.519 0 0 0 0 5.035h15zm-5.775 3.707a2.521 2.521 0 0 0 0 5.037h10.309a53.682 53.682 0 0 1-2.864-5.037zm103.207-23.7a48 48 0 1 1-48-48 48 48 0 0 1 48 47.993zm-2.667 0a45.334 45.334 0 1 0-45.334 45.334 45.333 45.333 0 0 0 45.334-45.341z" class="prefix__cls-1" data-name="Path 837" transform="translate(-80.39 -79.702)"/>
    </g>
</svg>
