<svg xmlns="http://www.w3.org/2000/svg" xmlns:xlink="http://www.w3.org/1999/xlink" width="160" height="160" viewBox="0 0 160 160"><defs><clipPath id="a"><rect width="160" height="160" fill="#0076b6"/></clipPath></defs><g clip-path="url(#a)"><g transform="translate(30.667 20)"><path d="M96.95,42.6C94.379,23.6,81.25,15,68.21,15S42.035,23.607,39.466,42.6a6.664,6.664,0,0,0-4.7,6.337v7.308a6.676,6.676,0,0,0,6.681,6.632H42.2a38.1,38.1,0,0,1-.428-5.672,36.7,36.7,0,0,1,3.536-15.879A28.085,28.085,0,0,1,51.6,27.809a22.582,22.582,0,0,1,31.773-1.415q.742.672,1.423,1.415a28.056,28.056,0,0,1,6.3,13.517,36.7,36.7,0,0,1,3.536,15.88,38.278,38.278,0,0,1-.427,5.672h.763a6.677,6.677,0,0,0,6.676-6.636V48.935A6.664,6.664,0,0,0,96.95,42.6Z" transform="translate(-19.078 -15)" fill="#0076b6"/><path d="M88.51,52.493c-1.456,9.685-10.683,9.128-16,9.312a3.68,3.68,0,0,0-2.58-1.069H62.61A3.635,3.635,0,0,0,62.332,68c.091,0,.18,0,.271,0h7.327a3.653,3.653,0,0,0,2.619-1.115c20.356-.513,21-11.477,21-21.42h-.084Z" transform="translate(-11.054 -4.845)" fill="#0076b6"/><path d="M67.029,24.475C81,24.475,92.362,38.231,92.362,55.14S81,85.807,67.029,85.807,41.7,72.051,41.7,55.14,53.06,24.475,67.029,24.475m0-2.667c-15.44,0-28,14.952-28,33.332s12.56,33.333,28,33.333,28-14.952,28-33.333-12.561-33.332-28-33.332Z" transform="translate(-17.657 -12.731)" fill="#0076b6"/><path d="M121.667,100v10.749a6.675,6.675,0,0,1-6.676,6.636H29.676A6.676,6.676,0,0,1,23,110.754V100A32.609,32.609,0,0,1,51.216,67.883,28.425,28.425,0,0,0,62.1,75.1L72.34,97.978,82.668,74.9a28.487,28.487,0,0,0,8.916-5.581q.776-.716,1.495-1.489h0A32.608,32.608,0,0,1,121.667,100Z" transform="translate(-23 2.61)" fill="#0076b6"/></g></g></svg>