<svg xmlns="http://www.w3.org/2000/svg" xmlns:xlink="http://www.w3.org/1999/xlink" width="160" height="160" viewBox="0 0 160 160"><defs><clipPath id="a"><rect width="160" height="160" fill="#0076b6"/></clipPath></defs><g clip-path="url(#a)"><g transform="translate(18 18)"><path d="M53.352,90.34H23.959a51.927,51.927,0,0,1-2.136-26.593H41.794a3.473,3.473,0,0,1,3.468,3.469v7.427a5.78,5.78,0,1,0,4.624,0V67.216a8.1,8.1,0,0,0-8.092-8.093H22.872A52.116,52.116,0,0,1,56.82,23.548V86.87A3.473,3.473,0,0,1,53.352,90.34Zm33.52-26.281a2,2,0,1,0,2,2,2,2,0,0,0-2-2h0ZM73,69.216a2,2,0,1,0-2-2A2,2,0,0,0,73,69.216ZM47.572,81.933a2,2,0,1,0-2-2A2,2,0,0,0,47.572,81.933Zm50.859-7.78a3.469,3.469,0,0,0-3.467,3.468v3.468a8.1,8.1,0,0,1-8.092,8.095H81.759a5.782,5.782,0,1,1,0-4.625h5.113A3.473,3.473,0,0,0,90.34,81.09V77.621a8.1,8.1,0,0,1,8.091-8.093h26.457a51.96,51.96,0,0,0-21.833-38.984V60.278a8.1,8.1,0,0,1-8.091,8.092h-2.8a5.782,5.782,0,1,1,0-4.624h2.8a3.471,3.471,0,0,0,3.467-3.468V27.613a51.686,51.686,0,0,0-23.116-6.588v40.9a5.781,5.781,0,1,1-4.624,0v-40.9a51.954,51.954,0,0,0-9.248,1.248v64.6a8.1,8.1,0,0,1-8.091,8.093h-27.5A52.01,52.01,0,0,0,73,125.025a52.652,52.652,0,0,0,5.78-.328V105.37a8.1,8.1,0,0,1,8.091-8.093H119a51.727,51.727,0,0,0,5.983-23.124ZM83.406,105.37v18.612A52.05,52.05,0,0,0,116.252,101.9H86.872A3.473,3.473,0,0,0,83.406,105.37Zm-6.935-20.5a2,2,0,1,0,2,2A2,2,0,0,0,76.471,84.87Z" transform="translate(-11.004 -10.992)" fill="#0076b6"/><path d="M75.5,16.167A59.333,59.333,0,1,1,16.167,75.5,59.4,59.4,0,0,1,75.5,16.167m0-2.667a62,62,0,1,0,62,62,62,62,0,0,0-62-62Z" transform="translate(-13.5 -13.5)" fill="#0076b6"/></g></g></svg>