<svg id="customers-100_percent" data-name="customers-100 percent" xmlns="http://www.w3.org/2000/svg" xmlns:xlink="http://www.w3.org/1999/xlink" width="120" height="120" viewBox="0 0 120 120">
  <defs>
    <clipPath id="clip-path">
      <rect id="Rectangle_464" data-name="Rectangle 464" width="120" height="120" fill="#0076b6"/>
    </clipPath>
  </defs>
  <g id="Group_691" data-name="Group 691" clip-path="url(#clip-path)">
    <path id="Path_812" data-name="Path 812" d="M60,105a45,45,0,1,1,45-45A45.051,45.051,0,0,1,60,105Zm0-88a43,43,0,1,0,43,43A43.049,43.049,0,0,0,60,17Z" fill="#0076b6"/>
    <path id="Path_813" data-name="Path 813" d="M60,85A25,25,0,1,1,85,60,25.028,25.028,0,0,1,60,85Zm0-48A23,23,0,1,0,83,60,23.026,23.026,0,0,0,60,37Z" fill="#0076b6"/>
    <path id="Path_773" data-name="Path 773" d="M60,20a40,40,0,1,0,40,40A40,40,0,0,0,60,20Zm0,67.5A27.5,27.5,0,1,1,87.5,60,27.5,27.5,0,0,1,60,87.5Z" fill="#0076b6"/>
    <path id="Path_774" data-name="Path 774" d="M47.446,65.688H44.813V56.961H42.274V55.1l5.172-.8Z" fill="#0076b6"/>
    <path id="Path_775" data-name="Path 775" d="M58.209,61.195a5.011,5.011,0,0,1-1.071,3.481,4.14,4.14,0,0,1-5.781,0,5.006,5.006,0,0,1-1.07-3.481v-2.39a5.041,5.041,0,0,1,1.062-3.481,4.141,4.141,0,0,1,5.786,0A5.006,5.006,0,0,1,58.209,58.8Zm-2.633-2.57a3.808,3.808,0,0,0-.344-1.875,1.092,1.092,0,0,0-.992-.57,1.074,1.074,0,0,0-.988.57,3.922,3.922,0,0,0-.332,1.875v2.734a3.915,3.915,0,0,0,.336,1.9,1.152,1.152,0,0,0,1.984,0,3.929,3.929,0,0,0,.336-1.9Z" fill="#0076b6"/>
    <path id="Path_776" data-name="Path 776" d="M66.674,61.195a5.006,5.006,0,0,1-1.07,3.481,4.14,4.14,0,0,1-5.781,0,5.011,5.011,0,0,1-1.071-3.481v-2.39a5.036,5.036,0,0,1,1.063-3.481,4.14,4.14,0,0,1,5.785,0A5,5,0,0,1,66.674,58.8Zm-2.633-2.57A3.806,3.806,0,0,0,63.7,56.75a1.1,1.1,0,0,0-.993-.57,1.076,1.076,0,0,0-.988.57,3.922,3.922,0,0,0-.332,1.875v2.734a3.929,3.929,0,0,0,.336,1.9,1.09,1.09,0,0,0,1,.566,1.075,1.075,0,0,0,.984-.566,3.929,3.929,0,0,0,.336-1.9Z" fill="#0076b6"/>
    <path id="Path_777" data-name="Path 777" d="M67.257,56.5a2.312,2.312,0,0,1,.656-1.684,2.965,2.965,0,0,1,3.75,0A2.3,2.3,0,0,1,72.32,56.5v.6a2.272,2.272,0,0,1-.657,1.675,2.977,2.977,0,0,1-3.746,0,2.273,2.273,0,0,1-.66-1.671Zm1.688.6a.978.978,0,0,0,.218.648.783.783,0,0,0,.633.26.747.747,0,0,0,.613-.26.981.981,0,0,0,.215-.648v-.6a1,1,0,0,0-.218-.656.76.76,0,0,0-.625-.268.751.751,0,0,0-.618.268,1,1,0,0,0-.218.656Zm1.265,7.736-1.226-.617,5.554-8.891,1.227.617ZM72.656,62.9a2.279,2.279,0,0,1,.664-1.675,2.977,2.977,0,0,1,3.753,0,2.3,2.3,0,0,1,.653,1.679v.6a2.3,2.3,0,0,1-.653,1.684,2.5,2.5,0,0,1-1.863.66,2.56,2.56,0,0,1-1.887-.664,2.272,2.272,0,0,1-.667-1.68Zm1.695.6a.919.919,0,0,0,.25.645.8.8,0,0,0,.609.271.76.76,0,0,0,.656-.24,1.149,1.149,0,0,0,.172-.676v-.6a.984.984,0,0,0-.222-.648.858.858,0,0,0-1.213-.033h0l-.033.033a.99.99,0,0,0-.219.648Z" fill="#0076b6"/>
  </g>
</svg>
