<svg id="customers-single_solution" data-name="customers-single solution" xmlns="http://www.w3.org/2000/svg" xmlns:xlink="http://www.w3.org/1999/xlink" width="120" height="120" viewBox="0 0 120 120">
  <defs>
    <clipPath id="clip-path">
      <rect id="Rectangle_463" data-name="Rectangle 463" width="120" height="120" fill="#0076b6"/>
    </clipPath>
  </defs>
  <g id="Group_689" data-name="Group 689">
    <g id="Group_688" data-name="Group 688" clip-path="url(#clip-path)">
      <path id="Path_796" data-name="Path 796" d="M60,105a45,45,0,1,1,45-45A45,45,0,0,1,60,105Zm0-88a43,43,0,1,0,43,43A43,43,0,0,0,60,17Z" fill="#0076b6"/>
      <path id="Path_797" data-name="Path 797" d="M60,84.231A24.231,24.231,0,1,1,84.231,60,24.232,24.232,0,0,1,60,84.231Zm0-46.462A22.231,22.231,0,1,0,82.231,60,22.231,22.231,0,0,0,60,37.769Z" fill="#0076b6"/>
      <circle id="Ellipse_89" data-name="Ellipse 89" cx="6.061" cy="6.061" r="6.061" transform="translate(53.939 53.939)" fill="#0076b6"/>
      <path id="Path_85" data-name="Path 85" d="M101.464,27.361l-6.5-1.414a.814.814,0,0,1-.617-.6l-1.635-6.825a1.124,1.124,0,0,0-1.784-.687L80.943,27.82a.812.812,0,0,0-.238.57l-.031,7.587a.81.81,0,0,1-.238.571l-21.122,21.1c-.5.5-.508,1.832-.443,2.746A1.185,1.185,0,0,0,59.9,61.482c.906.116,2.221.175,2.739-.343L83.848,40.076a.813.813,0,0,1,.584-.236h.217l6.955-.411a.807.807,0,0,0,.527-.236l10.042-10.042a1.126,1.126,0,0,0-.709-1.793Z" fill="#0076b6"/>
    </g>
  </g>
</svg>
