<svg id="customers-25kplus_carriers" data-name="customers-25kplus carriers" xmlns="http://www.w3.org/2000/svg" xmlns:xlink="http://www.w3.org/1999/xlink" width="120" height="120" viewBox="0 0 120 120">
  <defs>
    <clipPath id="clip-path">
      <rect id="Rectangle_460" data-name="Rectangle 460" width="120" height="120" fill="#0076b6"/>
    </clipPath>
  </defs>
  <g id="Group_678" data-name="Group 678" clip-path="url(#clip-path)">
    <g id="Group_677" data-name="Group 677">
      <path id="Path_758" data-name="Path 758" d="M43.565,72.689H41.372a.83.83,0,0,0-.824.832v1.227a.829.829,0,0,0,.824.83h2.2a.826.826,0,0,0,.82-.83V73.522a.828.828,0,0,0-.823-.833Z" fill="#0076b6"/>
      <path id="Path_788" data-name="Path 788" d="M75.262,92.5a4.285,4.285,0,0,1-4.247-4.307v-.348H48.988V88.2a4.28,4.28,0,0,1-4.236,4.3H40.211a4.284,4.284,0,0,1-4.246-4.307V84.042A4.292,4.292,0,0,1,35,81.32V77.972A4.3,4.3,0,0,1,36.5,74.7c.033-.888.067-1.58.094-2.119.029-.622.051-1.073.051-1.426a6.591,6.591,0,0,1,1.183-3.378,20.455,20.455,0,0,1,2.193-3.086.176.176,0,0,0,.036-.111V57.363l-.311-.353h-.691a3.442,3.442,0,0,1-3.413-3.459V48.084a3.438,3.438,0,0,1,3.4-3.453h1.009V36.79a4.723,4.723,0,0,1,.984-2.9V31.314a3.821,3.821,0,0,1,3.82-3.819h0a3.826,3.826,0,0,1,3.818,3.818v.035c2.264-.158,5.224-.263,8.489-.3H62.82c3.271.035,6.233.14,8.5.3v-.035A3.821,3.821,0,0,1,75.141,27.5h0a3.826,3.826,0,0,1,3.818,3.818V33.9a4.736,4.736,0,0,1,.986,2.89V44.63h1.006a3.445,3.445,0,0,1,3.413,3.46v5.464a3.441,3.441,0,0,1-3.4,3.453h-.7l-.316.358V64.65c.749.877,3.411,4.165,3.411,6.5,0,.336.021.767.049,1.352.03.6.063,1.306.1,2.194A4.283,4.283,0,0,1,85,77.967v3.354a4.281,4.281,0,0,1-.96,2.724V88.2A4.281,4.281,0,0,1,79.8,92.5ZM47.988,85.845H72.015a1,1,0,0,1,1,1V88.2a2.282,2.282,0,0,0,2.256,2.3h4.523a2.279,2.279,0,0,0,2.246-2.293V83.664a1,1,0,0,1,.29-.7A2.329,2.329,0,0,0,83,81.324V77.965a2.3,2.3,0,0,0-1.035-1.926.994.994,0,0,1-.449-.8c-.038-1.107-.078-1.94-.109-2.563-.034-.705-.055-1.166-.055-1.527,0-1.163-1.531-3.605-3.009-5.294a1.452,1.452,0,0,1-.4-1.13l0-7.736a1,1,0,0,1,.249-.661l.864-.981a1,1,0,0,1,.751-.339h1.147a1.437,1.437,0,0,0,1.413-1.446V48.084a1.442,1.442,0,0,0-1.423-1.454h-2a1,1,0,0,1-1-1V36.79a2.743,2.743,0,0,0-.723-1.853,1,1,0,0,1-.263-.676V31.314A1.823,1.823,0,0,0,75.141,29.5h0a1.821,1.821,0,0,0-1.821,1.819v1.115a1,1,0,0,1-.324.737.988.988,0,0,1-.763.259c-2.314-.2-5.661-.334-9.423-.375H57.182c-3.757.041-7.1.175-9.413.375a1,1,0,0,1-1.087-1V31.314A1.823,1.823,0,0,0,44.863,29.5h0a1.821,1.821,0,0,0-1.82,1.819v2.944a1,1,0,0,1-.263.676,2.733,2.733,0,0,0-.721,1.855v8.842a1,1,0,0,1-1,1h-2a1.435,1.435,0,0,0-1.413,1.446v5.481a1.439,1.439,0,0,0,1.422,1.452H40.2a1,1,0,0,1,.751.339l.86.976a1,1,0,0,1,.249.661v7.582a2.177,2.177,0,0,1-.511,1.413,19.075,19.075,0,0,0-2.035,2.872,4.651,4.651,0,0,0-.868,2.371c0,.3-.02.785-.052,1.452-.031.626-.071,1.456-.109,2.565a1,1,0,0,1-.449.8A2.3,2.3,0,0,0,37,77.971v3.348a2.31,2.31,0,0,0,.671,1.633.992.992,0,0,1,.163.218,1.03,1.03,0,0,1,.131.494V88.2a2.281,2.281,0,0,0,2.255,2.3h4.523a2.278,2.278,0,0,0,2.245-2.292V86.845A1,1,0,0,1,47.988,85.845ZM79.941,64.763v.032A.171.171,0,0,0,79.941,64.763Zm-.149-.284c.015.016.032.037.054.06A.75.75,0,0,0,79.792,64.479Z" fill="#0076b6"/>
      <path id="Path_760" data-name="Path 760" d="M70.613,63.077a.622.622,0,0,1,0,1.244H49.391a.622.622,0,0,1,0-1.244ZM49.574,65.986a.622.622,0,0,0,0,1.243H70.4a.619.619,0,0,0,.615-.623h0a.618.618,0,0,0-.615-.621h0Zm.2,2.91a.621.621,0,0,0,0,1.242H70.233a.621.621,0,0,0,0-1.242Zm.186,2.9a.621.621,0,0,0,0,1.242H70.03a.621.621,0,0,0,0-1.242Zm28.676.885H76.443a.83.83,0,0,0-.824.832v1.227a.829.829,0,0,0,.824.83h2.194a.825.825,0,0,0,.821-.829h0V73.521h0a.826.826,0,0,0-.82-.832h0ZM47.1,45.821a1.791,1.791,0,0,0-1.746,1.638l-.576,7.882a1.5,1.5,0,0,0,1.356,1.631h0c.051,0,.1.007.151.006H73.723a1.5,1.5,0,0,0,1.513-1.487h0a1.255,1.255,0,0,0-.006-.15l-.573-7.885a1.79,1.79,0,0,0-1.746-1.635Zm20.763-4.708h0A1.148,1.148,0,0,0,69,39.959h0a1.148,1.148,0,0,0-1.143-1.151H52.142a1.154,1.154,0,0,0,0,2.308Z" fill="#0076b6"/>
    </g>
    <g id="Group_650" data-name="Group 650">
      <path id="Path_761" data-name="Path 761" d="M16.358,67.654H15.072a.493.493,0,0,0-.483.5v.74a.493.493,0,0,0,.483.5H16.36a.492.492,0,0,0,.482-.5v-.739A.493.493,0,0,0,16.358,67.654Z" fill="#0076b6"/>
      <path id="Path_789" data-name="Path 789" d="M34.954,80h-.026a2.957,2.957,0,0,1-2.872-2.808h-12.1A2.957,2.957,0,0,1,17.072,80H14.391a2.963,2.963,0,0,1-2.9-3.011V74.624a3.023,3.023,0,0,1-.563-1.767V70.84a3,3,0,0,1,.887-2.146c.016-.413.031-.75.044-1.026l.006-.115c.016-.35.03-.621.03-.826a4.417,4.417,0,0,1,.759-2.254,12.305,12.305,0,0,1,1.24-1.811V58.594h-.17a2.46,2.46,0,0,1-2.415-2.5V52.814a2.45,2.45,0,0,1,2.391-2.48h.2V46a3.28,3.28,0,0,1,.577-1.869V42.7a2.652,2.652,0,0,1,2.589-2.695,2.587,2.587,0,0,1,1.9.731,2.638,2.638,0,0,1,.8,1.56c1.247-.078,2.806-.13,4.582-.153h3.321c1.739.02,3.324.073,4.592.153a2.661,2.661,0,0,1,2.568-2.291,2.654,2.654,0,0,1,2.719,2.589c0,.014,0,.11,0,.124v1.421A3.3,3.3,0,0,1,38.111,46a1.03,1.03,0,0,1-1.005,1,1,1,0,0,1-.995-1,1.3,1.3,0,0,0-.32-.861,1,1,0,0,1-.248-.658V42.7a.684.684,0,0,0-.2-.515A.626.626,0,0,0,34.872,42a.658.658,0,0,0-.639.672v.7a1,1,0,0,1-1.089,1c-1.335-.119-3.286-.2-5.494-.225h-3.3c-2.23.029-4.182.108-5.481.225a1.014,1.014,0,0,1-.765-.258,1,1,0,0,1-.325-.738V42.7a.655.655,0,1,0-1.309-.024v1.8a1,1,0,0,1-.252.664A1.284,1.284,0,0,0,15.9,46v5.337a1,1,0,0,1-1,1H13.724a.446.446,0,0,0-.415.459v3.321a.458.458,0,0,0,.44.481h.645a1,1,0,0,1,.762.352l.5.588a1,1,0,0,1,.238.648v4.573a1.734,1.734,0,0,1-.387,1.1,10.948,10.948,0,0,0-1.155,1.674,2.517,2.517,0,0,0-.459,1.267c0,.163-.012.467-.031.856l-1,.067,1,.047c-.017.362-.039.832-.059,1.443a1,1,0,0,1-.433.792,1.006,1.006,0,0,0-.437.836v2.026a1.029,1.029,0,0,0,.286.717,1,1,0,0,1,.277.692V77.01a.957.957,0,0,0,.926.99h2.632a.949.949,0,0,0,.905-.971v-.837a1,1,0,0,1,1-1h14.1a1,1,0,0,1,1,1v.818a.957.957,0,0,0,.926.99,1,1,0,0,1-.025,2ZM13.894,62.758v0Z" fill="#0076b6"/>
      <path id="Path_790" data-name="Path 790" d="M40.108,66.722h-2a7.09,7.09,0,0,0-1.671-2.942,1.255,1.255,0,0,1-.328-.947l0-5.02,1.046-1.222h1.131a.447.447,0,0,0,.416-.459l2-.04a2.454,2.454,0,0,1-2.392,2.5h-.2v4.076C38.726,63.427,40.108,65.288,40.108,66.722Zm-2-3.881v.052A.45.45,0,0,0,38.107,62.841Zm-.207-.422.082.1A.69.69,0,0,0,37.9,62.419Z" fill="#0076b6"/>
      <path id="Path_764" data-name="Path 764" d="M32.226,61.856a.375.375,0,0,1,0,.75H19.776a.375.375,0,1,1,0-.75ZM19.884,63.611a.375.375,0,0,0,0,.75H32.1a.369.369,0,0,0,.361-.377h0a.368.368,0,0,0-.362-.374H19.884ZM20,65.366a.375.375,0,0,0,0,.749H32a.375.375,0,0,0,0-.749Zm.107,1.754a.375.375,0,0,0,0,.749H31.884a.375.375,0,0,0,0-.749Zm16.822.534H35.646a.493.493,0,0,0-.483.5v.74a.493.493,0,0,0,.483.5h1.287a.491.491,0,0,0,.482-.5h0v-.741h0a.492.492,0,0,0-.483-.5Zm-18.5-16.206a1.062,1.062,0,0,0-1.024.988l-.338,4.754a.9.9,0,0,0,.8.984H34.056a.892.892,0,0,0,.887-.9v0h0a.676.676,0,0,0,0-.09l-.343-4.75a1.062,1.062,0,0,0-1.025-.986Zm12.181-2.84h0a.684.684,0,0,0,.67-.7v0h0a.683.683,0,0,0-.671-.694H21.39a.7.7,0,0,0,0,1.392Z" fill="#0076b6"/>
    </g>
    <g id="Group_651" data-name="Group 651">
      <path id="Path_765" data-name="Path 765" d="M84.358,67.654H83.072a.493.493,0,0,0-.483.5v.74a.493.493,0,0,0,.483.5H84.36a.492.492,0,0,0,.482-.5v-.739A.493.493,0,0,0,84.358,67.654Z" fill="#0076b6"/>
      <path id="Path_791" data-name="Path 791" d="M80.889,67.727l-.068,0a1,1,0,0,1-.931-1.065,4.386,4.386,0,0,1,.756-2.186,12.217,12.217,0,0,1,1.241-1.812V58.594h-.17a2.46,2.46,0,0,1-2.415-2.5,1.016,1.016,0,0,1,1.02-.979,1,1,0,0,1,.98,1.021.452.452,0,0,0,.439.46h.646a1,1,0,0,1,.761.352l.5.588a1,1,0,0,1,.239.648v4.573a1.709,1.709,0,0,1-.391,1.1,11.114,11.114,0,0,0-1.152,1.671,2.54,2.54,0,0,0-.458,1.268A1,1,0,0,1,80.889,67.727Zm1-4.967v0Z" fill="#0076b6"/>
      <path id="Path_792" data-name="Path 792" d="M85.056,80a1,1,0,0,1-.026-2,.954.954,0,0,0,.927-.971v-.837a1,1,0,0,1,1-1h14.1a1,1,0,0,1,1,1v.818a.957.957,0,0,0,.925.99h2.634a.947.947,0,0,0,.9-.967V74.274a1,1,0,0,1,.278-.692,1.017,1.017,0,0,0,.285-.714V70.837a1,1,0,0,0-.435-.842,1,1,0,0,1-.435-.792c-.022-.646-.045-1.124-.063-1.508l-.006-.149c-.017-.354-.028-.613-.028-.823a7.078,7.078,0,0,0-1.672-2.942,1.256,1.256,0,0,1-.327-.953l0-4.644a1,1,0,0,1,.241-.65l.506-.593a1,1,0,0,1,.76-.349h.67a.448.448,0,0,0,.416-.46V52.813a.458.458,0,0,0-.44-.481h-1.153a1,1,0,0,1-1-1V46a1.3,1.3,0,0,0-.326-.86,1,1,0,0,1-.252-.663V42.7a.657.657,0,0,0-.671-.7.655.655,0,0,0-.459.2.647.647,0,0,0-.179.468v.7a1,1,0,0,1-.326.738.974.974,0,0,1-.764.258c-1.333-.119-3.284-.2-5.492-.225h-3.3c-2.231.029-4.182.108-5.482.225a1,1,0,0,1-1.089-1V42.7a.657.657,0,0,0-.67-.7.655.655,0,0,0-.459.2.644.644,0,0,0-.18.468v1.8a1,1,0,0,1-.252.664,1.288,1.288,0,0,0-.325.86,1,1,0,0,1-1,1h0a1,1,0,0,1-1-1,3.287,3.287,0,0,1,.577-1.872V42.7a2.654,2.654,0,0,1,2.59-2.695,2.56,2.56,0,0,1,1.895.731,2.632,2.632,0,0,1,.8,1.56c1.247-.078,2.806-.13,4.582-.153h3.321c1.74.02,3.324.073,4.592.153a2.661,2.661,0,0,1,2.568-2.291,2.553,2.553,0,0,1,1.9.731,2.635,2.635,0,0,1,.824,1.858v1.542A3.3,3.3,0,0,1,106.111,46v4.334h.177a2.463,2.463,0,0,1,2.416,2.5v3.28a2.45,2.45,0,0,1-2.392,2.478h-.2v4.076c.619.76,2,2.62,2,4.055,0,.187.011.419.026.733l0,.115c.014.32.032.677.048,1.119a3,3,0,0,1,.888,2.155v2.017a3,3,0,0,1-.563,1.77v2.381A2.953,2.953,0,0,1,105.642,80h-2.685a2.963,2.963,0,0,1-2.9-2.808h-12.1A2.958,2.958,0,0,1,85.083,80Zm21.055-17.162v.056A.523.523,0,0,0,106.111,62.838Zm-.208-.418c.024.027.051.059.082.1A.535.535,0,0,0,105.9,62.42Z" fill="#0076b6"/>
      <path id="Path_768" data-name="Path 768" d="M100.226,61.856a.375.375,0,0,1,0,.75H87.776a.375.375,0,0,1,0-.75ZM87.884,63.611a.375.375,0,1,0,0,.75H100.1a.369.369,0,0,0,.361-.377h0a.368.368,0,0,0-.362-.374H87.884ZM88,65.366a.375.375,0,0,0,0,.749h12a.375.375,0,0,0,0-.749Zm.107,1.754a.375.375,0,0,0,0,.749H99.884a.375.375,0,0,0,0-.749Zm16.822.534h-1.286a.493.493,0,0,0-.483.5v.74a.493.493,0,0,0,.483.5h1.287a.491.491,0,0,0,.482-.5h0v-.741h0a.492.492,0,0,0-.48-.5Zm-18.5-16.206a1.062,1.062,0,0,0-1.024.988l-.338,4.754a.9.9,0,0,0,.8.984h16.189a.892.892,0,0,0,.887-.9v0h0a.676.676,0,0,0,0-.09l-.336-4.756a1.062,1.062,0,0,0-1.025-.986Zm12.181-2.84h0a.684.684,0,0,0,.67-.7v0h0a.683.683,0,0,0-.671-.694H89.39a.7.7,0,0,0,0,1.392Z" fill="#0076b6"/>
    </g>
  </g>
</svg>
