<svg id="customers-98_percent" data-name="customers-98 percent" xmlns="http://www.w3.org/2000/svg" xmlns:xlink="http://www.w3.org/1999/xlink" width="120" height="120" viewBox="0 0 120 120">
  <defs>
    <clipPath id="clip-path">
      <rect id="SVGID" width="120" height="120" fill="#0076b6"/>
    </clipPath>
  </defs>
  <g id="Group_690" data-name="Group 690" clip-path="url(#clip-path)">
    <path id="Path_798" data-name="Path 798" d="M60,105a45,45,0,1,1,45-45A45,45,0,0,1,60,105Zm0-88a43,43,0,1,0,43,43A43,43,0,0,0,60,17Z" fill="#0076b6"/>
    <path id="Path_799" data-name="Path 799" d="M60,85A25,25,0,1,1,85,60,25,25,0,0,1,60,85Zm0-48A23,23,0,1,0,83,60,23,23,0,0,0,60,37Z" fill="#0076b6"/>
    <path id="Path_778" data-name="Path 778" d="M100,60A40,40,0,1,1,54.949,20.329L56.8,32.691A27.461,27.461,0,1,0,60,32.5V20A40,40,0,0,1,100,60Z" fill="#0076b6"/>
    <path id="Path_779" data-name="Path 779" d="M49.722,63.82a1.686,1.686,0,0,0,1.305-.566,2.247,2.247,0,0,0,.515-1.566v-.5a2.553,2.553,0,0,1-.89.707,2.515,2.515,0,0,1-1.079.238,3,3,0,0,1-2.433-1.051,4.336,4.336,0,0,1-.879-2.871,4.058,4.058,0,0,1,1.109-2.879,3.745,3.745,0,0,1,2.86-1.184,3.636,3.636,0,0,1,2.832,1.243,4.933,4.933,0,0,1,1.113,3.414v2.7a4.124,4.124,0,0,1-1.266,3.156,4.476,4.476,0,0,1-3.187,1.188,6.056,6.056,0,0,1-1.215-.129,6.616,6.616,0,0,1-1.2-.364l.273-1.882a7.1,7.1,0,0,0,1.035.261A6.725,6.725,0,0,0,49.722,63.82Zm.43-3.586a1.945,1.945,0,0,0,.8-.156,1.6,1.6,0,0,0,.59-.43V58.477a3.226,3.226,0,0,0-.371-1.707,1.1,1.1,0,0,0-.949-.59,1.08,1.08,0,0,0-.965.617,2.774,2.774,0,0,0-.355,1.414,2.975,2.975,0,0,0,.312,1.48A1.012,1.012,0,0,0,50.152,60.234Z" fill="#0076b6"/>
    <path id="Path_780" data-name="Path 780" d="M62.454,57.352a2.652,2.652,0,0,1-.43,1.488,2.956,2.956,0,0,1-1.187,1.027A3.326,3.326,0,0,1,62.2,60.961a2.689,2.689,0,0,1,.492,1.594A2.914,2.914,0,0,1,61.594,65a5.226,5.226,0,0,1-5.727,0,2.907,2.907,0,0,1-1.1-2.441,2.689,2.689,0,0,1,.492-1.594,3.329,3.329,0,0,1,1.359-1.094,2.914,2.914,0,0,1-1.2-1.027,2.661,2.661,0,0,1-.426-1.488,2.882,2.882,0,0,1,1.028-2.364,4.775,4.775,0,0,1,5.41,0A2.889,2.889,0,0,1,62.454,57.352Zm-2.4,4.992a1.5,1.5,0,0,0-.367-1.071,1.27,1.27,0,0,0-.969-.39,1.229,1.229,0,0,0-.957.39,1.8,1.8,0,0,0,0,2.153,1.374,1.374,0,0,0,1.926,0,1.537,1.537,0,0,0,.368-1.082Zm-.234-4.852a1.5,1.5,0,0,0-.281-.961.989.989,0,0,0-.821-.351.966.966,0,0,0-.8.347,1.511,1.511,0,0,0-.277.965,1.591,1.591,0,0,0,.281.992,1.082,1.082,0,0,0,1.527.095,1.064,1.064,0,0,0,.095-.095,1.611,1.611,0,0,0,.277-.992Z" fill="#0076b6"/>
    <path id="Path_781" data-name="Path 781" d="M63.27,56.5a2.3,2.3,0,0,1,.657-1.684,2.965,2.965,0,0,1,3.75,0,2.312,2.312,0,0,1,.656,1.684v.6a2.28,2.28,0,0,1-.656,1.675,2.979,2.979,0,0,1-3.747,0,2.273,2.273,0,0,1-.66-1.671Zm1.688.6a.972.972,0,0,0,.219.648.782.782,0,0,0,.632.26.756.756,0,0,0,.614-.26.987.987,0,0,0,.214-.648v-.6a1,1,0,0,0-.218-.656.76.76,0,0,0-.625-.268.75.75,0,0,0-.617.268,1,1,0,0,0-.219.656Zm1.265,7.736L65,64.219l5.555-8.891,1.226.617ZM68.669,62.9a2.279,2.279,0,0,1,.664-1.675,2.978,2.978,0,0,1,3.754,0,2.3,2.3,0,0,1,.652,1.679v.6a2.3,2.3,0,0,1-.652,1.684,2.5,2.5,0,0,1-1.864.66,2.556,2.556,0,0,1-1.886-.664,2.267,2.267,0,0,1-.668-1.68Zm1.695.6a.919.919,0,0,0,.25.645.8.8,0,0,0,.609.271.759.759,0,0,0,.657-.241,1.148,1.148,0,0,0,.172-.675v-.6a.985.985,0,0,0-.223-.648.858.858,0,0,0-1.213-.033h0l-.033.033a.99.99,0,0,0-.219.648Z" fill="#0076b6"/>
  </g>
</svg>
