<svg id="customers-onboarding" xmlns="http://www.w3.org/2000/svg" xmlns:xlink="http://www.w3.org/1999/xlink" width="120" height="120" viewBox="0 0 120 120">
  <defs>
    <clipPath id="clip-path">
      <rect id="SVGID" width="120" height="120" fill="#0076b6"/>
    </clipPath>
  </defs>
  <g id="Group_679" data-name="Group 679" clip-path="url(#clip-path)">
    <path id="Path_793" data-name="Path 793" d="M97.934,96.916h0a2.054,2.054,0,0,1-1.334-.492L85.9,87.348a1.948,1.948,0,0,1-2.728-.144L81.44,85.3a14.094,14.094,0,1,1,10.522-9.783l1.824,2a1.951,1.951,0,0,1-.121,2.747l-.151.137,8.064,11.479a2.063,2.063,0,0,1-.3,2.7L99.316,96.38A2.042,2.042,0,0,1,97.934,96.916ZM85.88,85.016a1,1,0,0,1,.647.237L97.894,94.9l.04.015h0a.051.051,0,0,0,.034-.014l1.967-1.794L91.37,80.833a1,1,0,0,1,.146-1.314l.8-.728-1.939-2.042a.98.98,0,0,1-.515-1.229,12.091,12.091,0,1,0-8.294,7.7.994.994,0,0,1,1.161.535l1.923,2.1.555-.579A1,1,0,0,1,85.88,85.016Z" fill="#0076b6"/>
    <path id="Path_770" data-name="Path 770" d="M77.22,76.44a.7.7,0,0,1,.7.57l.1.5a.707.707,0,0,0,.693.569.64.64,0,0,0,.138-.014l1.764-.352a.706.706,0,0,0,.557-.829v0h0l-.1-.5a.71.71,0,0,1,.559-.834.668.668,0,0,1,.141-.014.7.7,0,0,1,.391.121l.42.281a.708.708,0,0,0,.982-.195l1-1.5a.708.708,0,0,0-.2-.981h0l-.421-.281a.708.708,0,0,1,.254-1.283l.5-.1a.708.708,0,0,0,.557-.831h0L84.9,69a.709.709,0,0,0-.694-.57.72.72,0,0,0-.139.014l-.5.1a.793.793,0,0,1-.146.014.708.708,0,0,1-.582-1.1l.281-.42a.708.708,0,0,0-.2-.981h0l-1.5-1a.708.708,0,0,0-.982.195l-.281.421a.692.692,0,0,1-.584.316.7.7,0,0,1-.7-.57l-.1-.5a.707.707,0,0,0-.693-.569.72.72,0,0,0-.139.014l-1.764.352a.707.707,0,0,0-.556.831h0l.1.5a.708.708,0,0,1-.555.834h0a.7.7,0,0,1-.535-.108l-.421-.28a.705.705,0,0,0-.979.194h0l-1,1.5a.708.708,0,0,0,.2.981h0l.421.28a.708.708,0,0,1-.255,1.283l-.5.1a.708.708,0,0,0-.555.832h0l.352,1.764a.705.705,0,0,0,.827.557h0l.5-.1a.783.783,0,0,1,.145-.014.708.708,0,0,1,.583,1.1l-.281.42a.708.708,0,0,0,.2.981h0l1.5,1a.707.707,0,0,0,.98-.195l.28-.42A.7.7,0,0,1,77.22,76.44Zm-41.582.888h8.28a.646.646,0,0,1,.646.646h0v1.29a.646.646,0,0,1-.646.646h-8.28a.647.647,0,0,1-.647-.646V77.975a.646.646,0,0,1,.645-.647Zm.317-9.521H51.42a.965.965,0,0,1,.964.964v.654a.963.963,0,0,1-.962.964H35.955a.965.965,0,0,1-.964-.964v-.654A.966.966,0,0,1,35.955,67.807Zm0-9.523H51.42a.965.965,0,0,1,.964.964h0V59.9a.963.963,0,0,1-.962.964H35.955a.965.965,0,0,1-.964-.964h0v-.654A.966.966,0,0,1,35.955,58.284Z" fill="#0076b6"/>
    <path id="Path_771" data-name="Path 771" d="M53.272,43.62h0v1.47h0a.91.91,0,0,1-.908.908H40.755a.912.912,0,0,1-.91-.909V43.62a4.455,4.455,0,0,1,3.84-4.4h0a3.13,3.13,0,0,0,.283.271l.039.032a3.961,3.961,0,0,0,2.081.907l.1.01c.054.005.109.01.164.013q.138.006.276,0h.089a2.016,2.016,0,0,0,.233-.021,3.956,3.956,0,0,0,1.963-.8l.066-.052c.058-.046.114-.094.169-.144.079-.072.157-.146.231-.225h0a4.438,4.438,0,0,1,2.641,1.324l.061.066c.024.026.049.052.072.079l.049.057c.026.031.053.062.078.093l.014.018a4.56,4.56,0,0,1,.326.465l.026.044c.025.042.05.084.073.127l.008.014c.029.053.057.107.084.161l.008.018a4.325,4.325,0,0,1,.219.533l.008.025a4.3,4.3,0,0,1,.145.56l.008.049c.009.05.018.1.026.152V43c.01.066.018.131.024.2v.042c0,.055.009.109.012.165v.036A1.159,1.159,0,0,1,53.272,43.62Zm-6.741-3.915h0c1.986,0,3.6-1.948,3.6-4.352S48.518,31,46.531,31c-1.861,0-3.392,1.713-3.576,3.908-.013.146-.019.294-.019.445a5.232,5.232,0,0,0,.162,1.294A3.751,3.751,0,0,0,46.531,39.705Z" fill="#0076b6"/>
    <path id="Path_794" data-name="Path 794" d="M52.559,50.5h-12a6.006,6.006,0,0,1-6-6v-12a6.006,6.006,0,0,1,6-6h12a6.006,6.006,0,0,1,6,6v12A6.006,6.006,0,0,1,52.559,50.5Zm-12-22a4,4,0,0,0-4,4v12a4,4,0,0,0,4,4h12a4,4,0,0,0,4-4v-12a4,4,0,0,0-4-4Z" fill="#0076b6"/>
    <path id="Path_795" data-name="Path 795" d="M24.046,96.5a6.029,6.029,0,0,1-6-6v-62a6.03,6.03,0,0,1,6-6h45a6.029,6.029,0,0,1,6,6V51.72l-.789.171c-.348.075-.678.146-1,.231a20.085,20.085,0,0,0,.727,38.991l1.077.245L74.71,92.4a6,6,0,0,1-5.659,4.1Zm0-72a4.024,4.024,0,0,0-4,4v62a4.023,4.023,0,0,0,4,4h45a4,4,0,0,0,3.282-1.75A22.059,22.059,0,0,1,57.1,77.236v0A22.118,22.118,0,0,1,72.742,50.189c.1-.026.2-.052.3-.076V28.5a4.023,4.023,0,0,0-4-4Z" fill="#0076b6"/>
  </g>
</svg>
